<svg width="166" height="112" viewBox="0 0 166 112" fill="none" xmlns="http://www.w3.org/2000/svg">
<path d="M15.5973 31.36C15.5973 27.0301 12.1057 23.52 7.79866 23.52C3.49158 23.52 0 27.0301 0 31.36V56C0 60.3299 3.49158 63.84 7.79866 63.84C12.1057 63.84 15.5973 60.3299 15.5973 56V31.36Z" fill="#B91F33"/>
<path d="M166 31.36C166 27.0301 162.508 23.52 158.201 23.52C153.894 23.52 150.403 27.0301 150.403 31.36V56C150.403 60.3299 153.894 63.84 158.201 63.84C162.508 63.84 166 60.3299 166 56V31.36Z" fill="#B91F33"/>
<path d="M90.2416 31.36C90.2416 27.0301 86.75 23.52 82.4429 23.52C78.1359 23.52 74.6443 27.0301 74.6443 31.36V56C74.6443 60.3299 78.1359 63.84 82.4429 63.84C86.75 63.84 90.2416 60.3299 90.2416 56V31.36Z" fill="#B91F33"/>
<path d="M40.1074 21.28C40.1074 16.9501 36.6158 13.44 32.3087 13.44C28.0016 13.44 24.5101 16.9501 24.5101 21.28V66.08C24.5101 70.4099 28.0016 73.92 32.3087 73.92C36.6158 73.92 40.1074 70.4099 40.1074 66.08V21.28Z" fill="#B91F33"/>
<path d="M140.376 21.28C140.376 16.9501 136.884 13.44 132.577 13.44C128.27 13.44 124.779 16.9501 124.779 21.28V66.08C124.779 70.4099 128.27 73.92 132.577 73.92C136.884 73.92 140.376 70.4099 140.376 66.08V21.28Z" fill="#B91F33"/>
<path d="M65.7315 7.84C65.7315 3.51009 62.24 0 57.9329 0C53.6258 0 50.1342 3.51009 50.1342 7.84V79.52C50.1342 83.8499 53.6258 87.36 57.9329 87.36C62.24 87.36 65.7315 83.8499 65.7315 79.52V7.84Z" fill="#B91F33"/>
<path d="M115.866 7.84C115.866 3.51009 112.374 0 108.067 0C103.76 0 100.268 3.51009 100.268 7.84V79.52C100.268 83.8499 103.76 87.36 108.067 87.36C112.374 87.36 115.866 83.8499 115.866 79.52V7.84Z" fill="#B91F33"/>
<path d="M26.9559 91.84H32.2258V112H26.9559V104.024H23.0954V112H17.8255V91.84H23.0954V100.099H26.9559V91.84Z" fill="white"/>
<path d="M44.6899 112L44.0771 108.985H39.3587L38.7153 112H33.4454L38.5009 91.84H45.0269L50.0823 112H44.6899ZM40.1859 105.092H43.2499L41.7486 97.8377L40.1859 105.092Z" fill="white"/>
<path d="M56.6688 104.84V112H51.3069V91.84H60.4067C63.4093 91.84 64.9107 93.138 64.9107 95.7338V100.946C64.9107 102.935 64.0323 104.16 62.2757 104.621L65.8911 112H60.131L57.0058 104.84H56.6688ZM58.7828 95.7653H56.6688V101.104H58.7828C59.2935 101.104 59.5489 100.873 59.5489 100.413V96.4561C59.5489 95.9955 59.2935 95.7653 58.7828 95.7653Z" fill="white"/>
<path d="M67.3518 91.84H76.3902C79.3929 91.84 80.8941 93.138 80.8941 95.7338V108.106C80.8941 110.702 79.3929 112 76.3902 112H67.3518V91.84ZM75.5323 107.698V96.142C75.5323 95.6815 75.277 95.4512 74.7664 95.4512H72.7136V108.389H74.7664C75.277 108.389 75.5323 108.159 75.5323 107.698Z" fill="white"/>
<path d="M102.571 99.3765H97.2091V96.142C97.2091 95.6815 96.9538 95.4512 96.4432 95.4512H95.3708C94.8602 95.4512 94.6048 95.6815 94.6048 96.142V107.698C94.6048 108.159 94.8602 108.389 95.3708 108.389H96.4432C96.9538 108.389 97.2091 108.159 97.2091 107.698V104.589H102.571V108.106C102.571 110.702 101.07 112 98.0671 112H93.747C90.7444 112 89.243 110.702 89.243 108.106V95.7338C89.243 93.138 90.7444 91.84 93.747 91.84H98.0671C101.07 91.84 102.571 93.138 102.571 95.7338V99.3765Z" fill="white"/>
<path d="M108.978 91.84H113.513C116.515 91.84 118.017 93.138 118.017 95.7338V108.106C118.017 110.702 116.515 112 113.513 112H108.978C105.976 112 104.474 110.702 104.474 108.106V95.7338C104.474 93.138 105.976 91.84 108.978 91.84ZM112.655 107.384V96.4561C112.655 95.9955 112.4 95.7653 111.888 95.7653H110.602C110.091 95.7653 109.836 95.9955 109.836 96.4561V107.384C109.836 107.844 110.091 108.075 110.602 108.075H111.888C112.4 108.075 112.655 107.844 112.655 107.384Z" fill="white"/>
<path d="M125.727 104.84V112H120.365V91.84H129.464C132.467 91.84 133.968 93.138 133.968 95.7338V100.946C133.968 102.935 133.09 104.16 131.333 104.621L134.948 112H129.188L126.063 104.84H125.727ZM127.84 95.7653H125.727V101.104H127.84C128.351 101.104 128.607 100.873 128.607 100.413V96.4561C128.607 95.9955 128.351 95.7653 127.84 95.7653Z" fill="white"/>
<path d="M141.464 108.075H148.174V112H136.102V91.84H147.898V95.7653H141.464V99.8789H147.01V103.804H141.464V108.075Z" fill="white"/>
</svg>
